<?xml version="1.0" encoding="utf-8"?>
<!-- Generator: Adobe Illustrator 24.0.1, SVG Export Plug-In . SVG Version: 6.00 Build 0)  -->
<svg version="1.1" id="Layer_1" xmlns="http://www.w3.org/2000/svg" xmlns:xlink="http://www.w3.org/1999/xlink" x="0px" y="0px"
	 viewBox="0 0 360 270" style="enableBackground:new 0 0 360 270;" xml:space="preserve">
<style type="text/css">
	.st0{fill:#FFFFFF;}
</style>
<g>
	<g>
		<path class="st0" d="M348.98,127.99c2.48,3.53,3.95,7.92,3.95,12.74c0,13.38-10.01,22.72-24.45,22.72
			c-6.04,0-11.34-1.68-15.43-4.59c4.18,5.95,11.5,9.61,20.44,9.61c14.44,0,24.45-9.34,24.45-22.72
			C357.94,138.23,354.41,131.74,348.98,127.99z"/>
		<path class="st0" d="M328.67,153.53c6.45,0,11.74-5.29,11.74-11.84c0-6.83-5.1-12.13-11.74-12.13s-11.94,5.39-11.94,11.93
			C316.73,148.24,321.93,153.53,328.67,153.53z"/>
		<g>
			<path class="st0" d="M37.81,155.91c-1.93,3.25-3.07,4.66-5.01,6.32c-3.34,2.81-7.82,4.48-12.47,4.48
				c-10.98,0-18.27-7.82-18.27-19.5c0-11.77,7.11-19.59,17.83-19.59c6.06,0,11.68,2.81,14.58,7.29c1.93,3.08,2.99,7.38,2.99,12.21
				v2.02H11.02c0.44,6.06,4.13,9.93,9.57,9.93c4.3,0,6.59-1.67,10.01-7.2L37.81,155.91z M28.67,142.21
				c-1.14-4.39-4.22-6.85-8.61-6.85c-4.13,0-7.47,2.64-8.52,6.85H28.67z"/>
			<path class="st0" d="M46.42,101.54h8.52v64.03h-8.52V101.54z"/>
			<path class="st0" d="M99.47,155.91c-1.93,3.25-3.07,4.66-5.01,6.32c-3.34,2.81-7.82,4.48-12.47,4.48
				c-10.98,0-18.27-7.82-18.27-19.5c0-11.77,7.11-19.59,17.83-19.59c6.06,0,11.68,2.81,14.58,7.29c1.93,3.08,2.99,7.38,2.99,12.21
				v2.02H72.68c0.44,6.06,4.13,9.93,9.57,9.93c4.3,0,6.59-1.67,10.01-7.2L99.47,155.91z M90.34,142.21
				c-1.14-4.39-4.22-6.85-8.61-6.85c-4.13,0-7.47,2.64-8.52,6.85H90.34z"/>
			<path class="st0" d="M108.08,128.6h8.52v3.43c3.25-3.43,5.18-4.39,8.87-4.39c4.13,0,7.64,1.93,9.93,5.45
				c2.64-3.6,6.41-5.45,10.89-5.45c4.66,0,8.87,2.28,10.72,5.8c1.14,2.28,1.76,5.45,1.76,9.31v22.84h-8.52v-20.55
				c0-7.03-1.58-9.75-5.71-9.75c-4.74,0-6.76,3.43-6.76,11.24v19.06h-8.52v-20.47c0-6.76-1.84-9.84-5.71-9.84
				c-2.37,0-4.74,1.41-5.71,3.34c-0.88,1.67-1.23,4.13-1.23,7.91v19.06h-8.52V128.6z"/>
			<path class="st0" d="M204,155.91c-1.93,3.25-3.07,4.66-5.01,6.32c-3.34,2.81-7.82,4.48-12.47,4.48
				c-10.98,0-18.27-7.82-18.27-19.5c0-11.77,7.11-19.59,17.83-19.59c6.06,0,11.68,2.81,14.58,7.29c1.93,3.08,2.99,7.38,2.99,12.21
				v2.02h-26.44c0.44,6.06,4.13,9.93,9.57,9.93c4.3,0,6.59-1.67,10.01-7.2L204,155.91z M194.87,142.21
				c-1.14-4.39-4.22-6.85-8.61-6.85c-4.13,0-7.47,2.64-8.52,6.85H194.87z"/>
			<path class="st0" d="M213.49,128.6h8.52v3.43c3.43-3.34,5.88-4.39,10.1-4.39c4.66,0,8.78,1.93,10.89,5.01
				c1.67,2.46,2.28,5.36,2.28,10.28v22.66h-8.52v-20.64c0-3.87-0.26-5.62-1.14-7.03c-1.05-1.67-3.08-2.64-5.71-2.64
				c-5.8,0-7.91,3.34-7.91,12.47v17.83h-8.52V128.6z"/>
			<path class="st0" d="M257.14,136.59h-3.6v-7.99h3.6v-13.53h8.52v13.53h6.68v7.99h-6.68v28.99h-8.52V136.59z"/>
		</g>
		<g>
			<path class="st0" d="M333,119.55c0.86,0,1.71,0.07,2.54,0.18l10.18-13.07l-5.01-5.01l-15.21,19.54
				C328.57,119.94,330.21,119.55,333,119.55z"/>
		</g>
		<g>
			<path class="st0" d="M328.67,129.56c-6.64,0-11.94,5.39-11.94,11.93c0,6.74,5.2,12.03,11.94,12.03c6.45,0,11.74-5.29,11.74-11.84
				C340.41,134.86,335.31,129.56,328.67,129.56z"/>
		</g>
	</g>
</g>
</svg>
