<?xml version="1.0" encoding="utf-8"?>
<!-- Generator: Adobe Illustrator 24.0.1, SVG Export Plug-In . SVG Version: 6.00 Build 0)  -->
<svg version="1.1" id="Layer_1" xmlns="http://www.w3.org/2000/svg" xmlns:xlink="http://www.w3.org/1999/xlink" x="0px" y="0px"
	 viewBox="0 0 261.35 48.75" style="enableBackground:new 0 0 261.35 48.75;" xml:space="preserve">
<style type="text/css">
	.st0{fill:#FFFFFF;}
</style>
<g>
	<g>
		<rect x="96.66" y="12.39" class="st0" width="5.1" height="5.96"/>
		<rect x="96.66" y="22.48" class="st0" width="5.1" height="14.92"/>
		<path class="st0" d="M114.67,17.98c1.08-0.7,2.24-1.05,3.49-1.05c1.25,0,2.39,0.35,3.44,1.05c0.17,0.11,0.32,0.24,0.48,0.37h6.58
			c-0.01-0.02-0.02-0.03-0.02-0.05c-1.07-1.96-2.52-3.51-4.37-4.63c-1.85-1.12-3.91-1.68-6.16-1.68c-2.28,0-4.34,0.56-6.18,1.68
			c-1.84,1.12-3.29,2.66-4.36,4.63c-0.01,0.02-0.02,0.03-0.02,0.05h6.65C114.34,18.23,114.5,18.1,114.67,17.98z"/>
		<path class="st0" d="M125,24.86c0,1.48-0.31,2.83-0.92,4.06c-0.61,1.23-1.44,2.19-2.49,2.89c-1.04,0.7-2.19,1.05-3.44,1.05
			c-1.25,0-2.4-0.36-3.47-1.07c-1.07-0.71-1.92-1.68-2.55-2.89c-0.63-1.21-0.95-2.56-0.95-4.04c0-0.83,0.11-1.63,0.31-2.38h-5.35
			c-0.12,0.77-0.19,1.56-0.19,2.38c0,2.43,0.53,4.63,1.6,6.59c1.07,1.97,2.52,3.51,4.37,4.64c1.85,1.13,3.91,1.7,6.17,1.7
			c2.26,0,4.31-0.57,6.16-1.7c1.85-1.13,3.31-2.69,4.37-4.66c1.07-1.98,1.6-4.17,1.6-6.57c0-0.82-0.07-1.61-0.19-2.38h-5.34
			C124.9,23.24,125,24.03,125,24.86z"/>
		<rect x="134.39" y="22.48" class="st0" width="4.87" height="14.92"/>
		<rect x="150.02" y="12.39" class="st0" width="4.84" height="5.96"/>
		<polygon class="st0" points="150.02,28.54 145.9,22.48 140.05,22.48 150.21,37.4 154.86,37.4 154.86,22.48 150.02,22.48 		"/>
		<polygon class="st0" points="139.04,12.39 134.39,12.39 134.39,18.35 143.09,18.35 		"/>
	</g>
	<g>
		<path class="st0" d="M38.87,24.01c0-4.8,1.65-9.16,4.32-12.39c-0.63-1.23-1.27-2.47-1.9-3.7c-0.03-0.07-0.07-0.13-0.11-0.22
			c-0.04,0.07-0.06,0.11-0.08,0.15c-0.77,1.5-1.54,3-2.31,4.51c-0.3,0.58-0.59,1.16-0.89,1.74c-0.23,0.44-0.55,0.64-0.98,0.58
			c-0.22-0.03-0.44-0.11-0.63-0.21c-0.59-0.3-1.16-0.62-1.74-0.93c-0.26-0.14-0.52-0.28-0.79-0.43c0,0.05,0,0.08,0.01,0.11
			c0.09,0.51,0.18,1.02,0.27,1.53c0.28,1.52,0.55,3.05,0.83,4.57c0.22,1.22,0.44,2.44,0.66,3.67c0.06,0.33,0.11,0.67,0.04,1.01
			c-0.09,0.41-0.38,0.63-0.77,0.54c-0.27-0.06-0.47-0.21-0.65-0.42c-1.12-1.32-2.25-2.63-3.37-3.95c-0.28-0.33-0.56-0.66-0.86-1
			c-0.02,0.06-0.03,0.1-0.05,0.14c-0.2,0.75-0.41,1.5-0.62,2.26c-0.15,0.53-0.54,0.76-1.07,0.65c-1.39-0.31-2.78-0.62-4.18-0.92
			c-0.33-0.07-0.66-0.14-1.01-0.22c0.01,0.04,0.01,0.06,0.02,0.08c0.28,1.06,0.56,2.12,0.83,3.18c0.26,1,0.52,1.99,0.77,2.99
			c0.12,0.48-0.01,0.76-0.4,0.95c-0.46,0.22-0.92,0.45-1.38,0.67c-0.2,0.1-0.41,0.2-0.62,0.31c0.05,0.05,0.09,0.08,0.13,0.12
			c2.4,2.04,4.8,4.08,7.2,6.12c0.59,0.5,1.19,1,1.77,1.51c0.42,0.37,0.55,0.84,0.4,1.38c-0.11,0.4-0.23,0.8-0.35,1.2
			c-0.14,0.48-0.28,0.96-0.42,1.46c0.86-0.1,1.7-0.2,2.54-0.3c1.06-0.13,2.11-0.26,3.17-0.39c1.1-0.13,2.19-0.26,3.29-0.4l2.62,0.02
			c0.88,0.12,1.76,0.21,2.64,0.32c0.88,0.11,1.76,0.22,2.64,0.32c0.32,0.04,0.64,0.08,0.96,0.12
			C42.99,38.12,38.87,31.62,38.87,24.01"/>
		<path class="st0" d="M59.23,13.77c1.6-0.8,3.4-1.27,5.32-1.27c1.91,0,3.72,0.46,5.32,1.27h7.16c-3.01-3.53-7.47-5.78-12.47-5.78
			c-5,0-9.47,2.25-12.47,5.78H59.23z"/>
		<path class="st0" d="M78.83,16.37H73.3c1.94,2.11,3.13,4.93,3.13,8.02c0,6.56-5.32,11.89-11.89,11.89
			c-6.57,0-11.89-5.32-11.89-11.89c0-3.1,1.19-5.91,3.13-8.02h-5.53c-1.33,2.37-2.1,5.1-2.1,8.01c0,9.05,7.34,16.39,16.39,16.39
			s16.39-7.34,16.39-16.39C80.93,21.46,80.16,18.74,78.83,16.37"/>
		<path class="st0" d="M48.97,13.77c2.13-2.82,5-4.95,8.14-5.75c-4.84-0.1-9.21,2.16-12.12,5.75H48.97z"/>
		<path class="st0" d="M45.25,23.7c0.13-2.54,0.88-5.06,2.08-7.33h-4.07c-1.18,2.2-1.89,4.71-1.97,7.37
			c-0.26,9.13,6.89,17.13,15.82,17.03C50.81,38.6,44.86,31.45,45.25,23.7"/>
	</g>
	<g>
		<path class="st0" d="M169.35,30.8c0-2.32,1.77-3.98,4.14-3.98c1.32,0,2.42,0.48,3.14,1.36l-1.13,1.06
			c-0.51-0.59-1.15-0.9-1.92-0.9c-1.43,0-2.44,1.01-2.44,2.46s1.01,2.46,2.44,2.46c0.76,0,1.41-0.31,1.92-0.91l1.13,1.06
			c-0.72,0.89-1.82,1.38-3.15,1.38C171.12,34.78,169.35,33.12,169.35,30.8z"/>
		<path class="st0" d="M177.33,30.8c0-2.29,1.77-3.98,4.17-3.98c2.4,0,4.17,1.68,4.17,3.98s-1.78,3.98-4.17,3.98
			C179.1,34.78,177.33,33.08,177.33,30.8z M183.89,30.8c0-1.46-1.02-2.46-2.39-2.46c-1.36,0-2.39,1-2.39,2.46s1.02,2.46,2.39,2.46
			C182.87,33.26,183.89,32.26,183.89,30.8z"/>
		<path class="st0" d="M193.94,34.65l-0.01-4.62l-2.24,3.81h-0.8l-2.23-3.71v4.52h-1.66v-7.7h1.46l2.85,4.79l2.81-4.79h1.45
			l0.02,7.7H193.94z"/>
		<path class="st0" d="M204.02,29.74c0,1.72-1.27,2.78-3.31,2.78h-1.54v2.12h-1.77v-7.7h3.3C202.74,26.95,204.02,28.01,204.02,29.74
			z M202.23,29.74c0-0.85-0.54-1.34-1.62-1.34h-1.44v2.67h1.44C201.69,31.07,202.23,30.58,202.23,29.74z"/>
		<path class="st0" d="M210.4,33h-3.54l-0.68,1.65h-1.81l3.4-7.7h1.74l3.41,7.7h-1.85L210.4,33z M209.84,31.64l-1.21-2.95
			l-1.21,2.95H209.84z"/>
		<path class="st0" d="M220.71,26.95v7.7h-1.45l-3.8-4.68v4.68h-1.74v-7.7h1.46l3.79,4.68v-4.68H220.71z"/>
		<path class="st0" d="M222.52,26.95h1.76v7.7h-1.76V26.95z"/>
		<path class="st0" d="M231.99,33.22v1.43h-5.91v-7.7h5.76v1.43h-4.01v1.67h3.54v1.39h-3.54v1.78H231.99z"/>
		<path class="st0" d="M232.8,33.89l0.6-1.34c0.64,0.47,1.6,0.8,2.52,0.8c1.05,0,1.47-0.35,1.47-0.83c0-1.44-4.43-0.45-4.43-3.31
			c0-1.31,1.05-2.4,3.21-2.4c0.96,0,1.94,0.23,2.65,0.68l-0.54,1.35c-0.71-0.41-1.44-0.6-2.11-0.6c-1.05,0-1.45,0.4-1.45,0.88
			c0,1.42,4.43,0.44,4.43,3.27c0,1.29-1.06,2.39-3.24,2.39C234.69,34.78,233.47,34.42,232.8,33.89z"/>
	</g>
	<g>
		<path class="st0" d="M176.33,17.89h1.93v3.98c-1,0.81-2.38,1.25-3.68,1.25c-2.86,0-4.97-2.12-4.97-5.07s2.11-5.07,5.01-5.07
			c1.6,0,2.93,0.59,3.81,1.69l-1.35,1.34c-0.66-0.76-1.43-1.11-2.36-1.11c-1.77,0-2.98,1.27-2.98,3.14c0,1.83,1.21,3.14,2.96,3.14
			c0.57,0,1.11-0.11,1.64-0.42V17.89z"/>
		<path class="st0" d="M185.56,22.95l-1.76-2.73h-0.1h-1.83v2.73h-2.11v-9.81h3.94c2.43,0,3.96,1.36,3.96,3.56
			c0,1.47-0.69,2.55-1.88,3.1l2.04,3.15H185.56z M183.58,14.99h-1.72v3.42h1.72c1.29,0,1.94-0.64,1.94-1.71
			C185.52,15.62,184.87,14.99,183.58,14.99z"/>
		<path class="st0" d="M188.29,18.04c0-2.91,2.11-5.07,4.98-5.07c2.86,0,4.99,2.14,4.99,5.07c0,2.93-2.12,5.07-4.99,5.07
			C190.4,23.11,188.29,20.96,188.29,18.04z M196.13,18.04c0-1.86-1.22-3.14-2.85-3.14s-2.85,1.27-2.85,3.14
			c0,1.86,1.22,3.14,2.85,3.14S196.13,19.91,196.13,18.04z"/>
		<path class="st0" d="M199.32,18.63v-5.49h2.11v5.41c0,1.86,0.75,2.63,2.03,2.63c1.29,0,2.03-0.77,2.03-2.63v-5.41h2.08v5.49
			c0,2.89-1.54,4.48-4.13,4.48S199.32,21.52,199.32,18.63z"/>
		<path class="st0" d="M217.11,16.7c0,2.19-1.52,3.54-3.96,3.54h-1.83v2.7h-2.11v-9.81h3.94C215.58,13.14,217.11,14.5,217.11,16.7z
			 M214.97,16.7c0-1.08-0.65-1.71-1.94-1.71h-1.72v3.4h1.72C214.32,18.39,214.97,17.76,214.97,16.7z"/>
		<path class="st0" d="M220.94,18.04c0-2.91,2.11-5.07,4.99-5.07c2.86,0,4.98,2.14,4.98,5.07c0,2.93-2.12,5.07-4.98,5.07
			C223.04,23.11,220.94,20.96,220.94,18.04z M228.77,18.04c0-1.86-1.22-3.14-2.85-3.14s-2.85,1.27-2.85,3.14
			c0,1.86,1.22,3.14,2.85,3.14S228.77,19.91,228.77,18.04z"/>
		<path class="st0" d="M234.15,14.96v2.59h4.22v1.82h-4.22v3.57h-2.11v-9.81h6.89v1.82H234.15z"/>
	</g>
</g>
</svg>
